<svg width="166" height="28" viewBox="0 0 166 28" fill="none" xmlns="http://www.w3.org/2000/svg">
<path fill-rule="evenodd" clip-rule="evenodd" d="M149.015 11.1882L154.208 5.86047C154.514 5.44609 154.636 5.20931 154.636 4.97252C154.636 4.55814 154.269 4.43975 153.17 4.43975H151.887V1.00635H166V4.38055H164.167C162.029 4.38055 161.601 4.67654 158.668 8.34673L150.481 16.871V22.0803C150.481 23.4419 151.153 23.8562 153.17 23.8562H156.225V27.1121H136.49V23.8562H139.606C141.622 23.8562 142.294 23.3827 142.294 22.0803V16.871L132.58 6.57083C130.992 4.79493 131.236 4.38055 126.776 4.38055V1.00635H144.616V4.38055H143.333C142.05 4.38055 141.5 4.61734 141.5 5.09091C141.5 5.50529 141.928 5.80127 142.172 6.09726L147.06 11.2474C147.671 11.8393 148.343 11.8985 149.015 11.1882Z" fill="white"/>
<path fill-rule="evenodd" clip-rule="evenodd" d="M28.5322 1.00633H32.8701V10.4186H28.8988C28.5322 8.52431 27.3103 7.81395 26.2105 6.8076C24.1943 5.0317 19.8565 3.55179 16.1907 3.55179C11.4862 3.55179 7.51491 4.97251 7.51491 7.04439C7.51491 12.7865 34.3975 8.22832 34.3975 19.1205C34.3975 24.8034 28.6544 28 18.329 28C14.7243 28 9.34781 26.9345 6.10968 25.277C5.13213 24.7442 4.70445 25.8097 4.52116 27.1712H0.122194V17.463H4.09349C4.94884 19.9493 6.17078 20.4228 7.33162 21.4292C9.28671 23.1459 13.869 24.389 18.0847 24.389C24.4387 24.3298 26.6382 22.9683 26.6382 21.0148C26.6382 19.0613 24.4387 18.5877 17.4737 17.5222L11.5473 16.575C4.88774 15.5687 0 14.148 0 8.93868C0 3.55179 6.17078 0.177582 15.9463 0.177582C20.0398 0.177582 23.5223 0.710351 26.8215 2.54545C27.6769 3.13741 28.5322 3.19661 28.5322 1.00633Z" fill="white"/>
<path fill-rule="evenodd" clip-rule="evenodd" d="M113.273 16.7526L113.335 6.27485C113.335 4.91332 112.601 4.43975 110.463 4.43975H107.958V1.24313H123.721V4.49895H121.644C119.566 4.49895 118.772 4.97252 118.772 6.33404V27.408L112.601 27.3488L92.6228 9.05709V22.3763C92.6228 23.7378 93.3559 24.2114 95.4943 24.2114H98.2437V27.408H81.8698V24.2114H84.558C86.6353 24.2114 87.4296 23.6787 87.4296 22.3763V6.39324C87.4296 5.03172 86.6964 4.55814 84.558 4.55814H81.8698V1.24313H95.9831L113.273 16.7526Z" fill="white"/>
<path fill-rule="evenodd" clip-rule="evenodd" d="M59.936 0C47.3501 0 39.5297 5.38689 39.5297 14.0296C39.5297 22.4947 47.2279 27.8224 59.5083 27.8224C72.5219 27.8224 80.0979 22.5539 80.0979 13.6152C80.159 5.50529 71.9721 0 59.936 0ZM59.6305 24.389C52.6655 24.389 48.6942 20.482 48.6942 13.7928C48.6942 7.22199 52.8488 3.37421 59.9971 3.37421C66.8399 3.37421 70.8112 7.34038 70.8112 14.0888C70.8112 20.6596 66.7177 24.389 59.6305 24.389Z" fill="white"/>
</svg>
