<svg width="61" height="26" viewBox="0 0 61 26" fill="none" xmlns="http://www.w3.org/2000/svg">
<g clip-path="url(#clip0_371_3655)">
<path d="M28.0606 25.0421L17.2582 12.0484L27.2737 0H20.8181L14.0303 8.16449L7.24257 0H0.786894L10.8025 12.0484L0 25.0421H6.45568L14.0303 15.9307L21.605 25.0421H28.0606Z" fill="white"/>
<path d="M23.6666 12.0484L33.6822 0H30.2529L20.2373 12.0484L31.0398 25.0421H34.4691L23.6666 12.0484Z" fill="white"/>
<path d="M51.8799 14.0707H52.0404C55.9859 14.0707 59.1854 10.9215 59.1854 7.03451C59.1854 3.14909 55.9875 -0.00170898 52.0404 -0.00170898H35.522V25.0419H40.8555V2.37573H49.5932C52.2057 2.37573 54.324 4.46179 54.324 7.03451C54.324 9.60722 52.2057 11.6933 49.5932 11.6933H44.1904L55.2856 25.0404H60.9984L51.8783 14.0692L51.8799 14.0707Z" fill="white"/>
</g>
<defs>
<clipPath id="clip0_371_3655">
<rect width="61" height="25.0421" fill="white"/>
</clipPath>
</defs>
</svg>
