<svg width="52" height="52" viewBox="0 0 52 52" fill="none" xmlns="http://www.w3.org/2000/svg">
<path fill-rule="evenodd" clip-rule="evenodd" d="M26 8.63281C20.2226 8.63281 15.5391 13.3163 15.5391 19.0938C15.5391 24.8712 20.2226 29.5547 26 29.5547C31.7774 29.5547 36.4609 24.8712 36.4609 19.0938C36.4609 13.3163 31.7774 8.63281 26 8.63281ZM12.2891 19.0938C12.2891 11.5214 18.4277 5.38281 26 5.38281C33.5723 5.38281 39.7109 11.5214 39.7109 19.0938C39.7109 26.6661 33.5723 32.8047 26 32.8047C18.4277 32.8047 12.2891 26.6661 12.2891 19.0938Z" fill="white"/>
<path fill-rule="evenodd" clip-rule="evenodd" d="M32.9062 22.4453C27.1288 22.4453 22.4453 27.1288 22.4453 32.9062C22.4453 38.6837 27.1288 43.3672 32.9062 43.3672C38.6837 43.3672 43.3672 38.6837 43.3672 32.9062C43.3672 27.1288 38.6837 22.4453 32.9062 22.4453ZM19.1953 32.9062C19.1953 25.3339 25.3339 19.1953 32.9062 19.1953C40.4786 19.1953 46.6172 25.3339 46.6172 32.9062C46.6172 40.4786 40.4786 46.6172 32.9062 46.6172C25.3339 46.6172 19.1953 40.4786 19.1953 32.9062Z" fill="white"/>
<path fill-rule="evenodd" clip-rule="evenodd" d="M19.0938 22.4453C13.3163 22.4453 8.63281 27.1288 8.63281 32.9062C8.63281 38.6837 13.3163 43.3672 19.0938 43.3672C24.8712 43.3672 29.5547 38.6837 29.5547 32.9062C29.5547 27.1288 24.8712 22.4453 19.0938 22.4453ZM5.38281 32.9062C5.38281 25.3339 11.5214 19.1953 19.0938 19.1953C26.6661 19.1953 32.8047 25.3339 32.8047 32.9062C32.8047 40.4786 26.6661 46.6172 19.0938 46.6172C11.5214 46.6172 5.38281 40.4786 5.38281 32.9062Z" fill="white"/>
</svg>
