<svg width="46" height="38" viewBox="0 0 46 38" fill="none" xmlns="http://www.w3.org/2000/svg">
<path d="M4.25 0.25C1.94792 0.25 0.0833359 2.11458 0.0833359 4.41667V29.4167C0.0833359 31.7187 1.94792 33.5833 4.25 33.5833H14.6667V35.6667C14.6667 36.8167 15.6 37.75 16.75 37.75H29.25C30.4 37.75 31.3333 36.8167 31.3333 35.6667V33.5833H41.75C44.0521 33.5833 45.9167 31.7187 45.9167 29.4167V4.41667C45.9167 2.11458 44.0521 0.25 41.75 0.25H4.25ZM6.33334 4.41667H39.6667C40.8167 4.41667 41.75 5.35 41.75 6.5V27.3333C41.75 28.4833 40.8167 29.4167 39.6667 29.4167H6.33334C5.18334 29.4167 4.25 28.4833 4.25 27.3333V6.5C4.25 5.35 5.18334 4.41667 6.33334 4.41667Z" fill="white"/>
</svg>
