<svg width="42" height="42" viewBox="0 0 42 42" fill="none" xmlns="http://www.w3.org/2000/svg">
<path d="M21 0.6875C15.9105 0.6875 11.7578 0.998903 8.67603 1.35559C4.83209 1.80003 1.80003 4.83209 1.35559 8.67603C0.998903 11.7578 0.6875 15.9105 0.6875 21C0.6875 26.0895 0.998903 30.2422 1.35559 33.324C1.80003 37.1679 4.83209 40.2 8.67603 40.6444C11.7578 41.0011 15.9105 41.3125 21 41.3125C26.0895 41.3125 30.2422 41.0011 33.324 40.6444C37.1679 40.2 40.2 37.1679 40.6444 33.324C41.0011 30.2422 41.3125 26.0895 41.3125 21C41.3125 15.9105 41.0011 11.7578 40.6444 8.67603C40.2 4.83209 37.1679 1.80003 33.324 1.35559C30.2422 0.998903 26.0895 0.6875 21 0.6875ZM5.96875 4.75C6.6415 4.75 7.1875 5.296 7.1875 5.96875C7.1875 6.6415 6.6415 7.1875 5.96875 7.1875C5.296 7.1875 4.75 6.6415 4.75 5.96875C4.75 5.296 5.296 4.75 5.96875 4.75ZM21 4.75C29.9603 4.75 37.25 12.0398 37.25 21C37.25 29.9603 29.9603 37.25 21 37.25C12.0398 37.25 4.75 29.9603 4.75 21C4.75 12.0398 12.0398 4.75 21 4.75ZM36.0312 4.75C36.704 4.75 37.25 5.296 37.25 5.96875C37.25 6.6415 36.704 7.1875 36.0312 7.1875C35.3585 7.1875 34.8125 6.6415 34.8125 5.96875C34.8125 5.296 35.3585 4.75 36.0312 4.75ZM21 7.1875C13.3836 7.1875 7.1875 13.3836 7.1875 21C7.1875 28.6164 13.3836 34.8125 21 34.8125C28.6164 34.8125 34.8125 28.6164 34.8125 21C34.8125 13.3836 28.6164 7.1875 21 7.1875ZM21 10.4375C26.8337 10.4375 31.5625 15.1663 31.5625 21C31.5625 26.8337 26.8337 31.5625 21 31.5625C15.1663 31.5625 10.4375 26.8337 10.4375 21C10.4375 15.1663 15.1663 10.4375 21 10.4375ZM21 16.9375C19.9226 16.9375 18.8892 17.3655 18.1274 18.1274C17.3655 18.8892 16.9375 19.9226 16.9375 21C16.9375 22.0774 17.3655 23.1108 18.1274 23.8726C18.8892 24.6345 19.9226 25.0625 21 25.0625C22.0774 25.0625 23.1108 24.6345 23.8726 23.8726C24.6345 23.1108 25.0625 22.0774 25.0625 21C25.0625 19.9226 24.6345 18.8892 23.8726 18.1274C23.1108 17.3655 22.0774 16.9375 21 16.9375ZM5.96875 34.8125C6.6415 34.8125 7.1875 35.3585 7.1875 36.0312C7.1875 36.704 6.6415 37.25 5.96875 37.25C5.296 37.25 4.75 36.704 4.75 36.0312C4.75 35.3585 5.296 34.8125 5.96875 34.8125ZM36.0312 34.8125C36.704 34.8125 37.25 35.3585 37.25 36.0312C37.25 36.704 36.704 37.25 36.0312 37.25C35.3585 37.25 34.8125 36.704 34.8125 36.0312C34.8125 35.3585 35.3585 34.8125 36.0312 34.8125Z" fill="white"/>
</svg>
